<svg xmlns="http://www.w3.org/2000/svg" xmlns:xlink="http://www.w3.org/1999/xlink" xml:space="preserve" width="2000" height="400" viewBox="0 0 529.17 105.83">
  <defs>
    <linearGradient id="g">
      <stop offset="0" stop-color="#cab381"/>
      <stop offset=".33" stop-color="#b48811"/>
      <stop offset=".66" stop-color="#a2790d"/>
      <stop offset="1" stop-color="#bb9b49"/>
    </linearGradient>
    <linearGradient id="f">
      <stop offset="0" stop-color="#c800c8"/>
      <stop offset="1" stop-color="#c800c8" stop-opacity="0"/>
    </linearGradient>
    <linearGradient id="e">
      <stop offset="0" stop-color="#00f"/>
      <stop offset="1" stop-color="#00f" stop-opacity="0"/>
    </linearGradient>
    <linearGradient id="a">
      <stop offset="0" stop-color="#191c20"/>
      <stop offset="1"/>
    </linearGradient>
    <linearGradient xlink:href="#a" id="i" x1="0" x2="529.17" y1="66.15" y2="66.15" gradientTransform="matrix(.2003 0 0 4.02414 -.08 -530.76)" gradientUnits="userSpaceOnUse"/>
    <linearGradient id="b">
      <stop offset="0" stop-color="red"/>
      <stop offset="1" stop-color="red" stop-opacity="0"/>
    </linearGradient>
    <linearGradient id="d">
      <stop offset="0" stop-color="#141414"/>
      <stop offset=".5" stop-color="#141414"/>
      <stop offset="1" stop-color="#5a5a5a"/>
    </linearGradient>
    <linearGradient id="c">
      <stop offset="0" stop-color="#141414"/>
      <stop offset=".5" stop-color="#141414"/>
      <stop offset="1" stop-color="#3c3c3c"/>
    </linearGradient>
    <linearGradient xlink:href="#c" id="s" x1="6.6" x2="69" y1="60.7" y2="16.8" gradientTransform="matrix(.34421 0 0 .29654 3.6 -133)" gradientUnits="userSpaceOnUse"/>
    <linearGradient xlink:href="#d" id="q" x1="6.6" x2="72.6" y1="60.7" y2="12.6" gradientTransform="translate(116.4 6.4)" gradientUnits="userSpaceOnUse"/>
    <linearGradient xlink:href="#c" id="t" x1="6.6" x2="69" y1="60.7" y2="16.8" gradientTransform="matrix(.10951 0 0 .09312 13 -125)" gradientUnits="userSpaceOnUse"/>
    <linearGradient xlink:href="#g" id="v" x1="-60.29" x2="65.27" y1="-73.74" y2="-73.74" gradientTransform="translate(88.19 116.47)" gradientUnits="userSpaceOnUse"/>
    <linearGradient id="h">
      <stop offset="0" stop-color="#cab381"/>
      <stop offset=".27" stop-color="#b48811"/>
      <stop offset=".63" stop-color="#a2790d"/>
      <stop offset="1" stop-color="#bb9b49"/>
    </linearGradient>
    <linearGradient xlink:href="#h" id="j" x1="0" x2="508" y1="119.89" y2="119.89" gradientTransform="matrix(1.01973 0 0 1.01984 214.35 .62)" gradientUnits="userSpaceOnUse"/>
    <linearGradient xlink:href="#h" id="k" x1="43.48" x2="171.06" y1="143.07" y2="143.07" gradientTransform="matrix(.45851 0 0 .46026 23.62 .08)" gradientUnits="userSpaceOnUse"/>
    <linearGradient xlink:href="#h" id="l" x1="287.17" x2="508.29" y1="168.04" y2="168.04" gradientTransform="matrix(.17834 0 0 .24355 421.25 61.57)" gradientUnits="userSpaceOnUse"/>
    <linearGradient xlink:href="#h" id="m" x1="80.96" x2="286.07" y1="142.88" y2="142.88" gradientTransform="matrix(.4592 0 0 .46075 175.97 .07)" gradientUnits="userSpaceOnUse"/>
    <linearGradient xlink:href="#h" id="o" x1="363.98" x2="473.45" y1="142.88" y2="142.88" gradientTransform="matrix(.45877 0 0 .46207 275.13 .1)" gradientUnits="userSpaceOnUse"/>
    <linearGradient xlink:href="#h" id="n" x1="-.08" x2="508.08" y1="140.11" y2="140.11" gradientTransform="matrix(1.17767 0 0 1.17836 27.76 -24.25)" gradientUnits="userSpaceOnUse"/>
    <linearGradient xlink:href="#h" id="p" x1="0" x2="508" y1="119.89" y2="119.89" gradientTransform="matrix(.186 0 0 .29781 -3.14 64.43)" gradientUnits="userSpaceOnUse"/>
    <mask id="u">
      <path fill="#fff" d="M-48.7 101.5h80.3v80.3h-80.3z"/>
      <path fill="#fff" d="M-48.7 101.5h80.4v80.3h-80.4z"/>
      <g stroke-linejoin="round">
        <path stroke-width="2.3" d="m-.1 100 27.7 2.4-.7 8L-.8 108z"/>
        <path stroke-width="1.6" d="m1.8 108.8 27.6 2.4-.3 3.8-27.7-2.4zm11.4 5.2 27.7 2.4-.3 4.4-27.7-2.4zm-3.9 4.6L37 121l-.4 3.8L9 122.4Zm-4.1 3.8 27.7 2.4-.4 4.6-27.7-2.5zm9.4 5.9 27.7 2.4-.5 5.3-27.7-2.5zM7 133.4l27.7 2.5-.5 6.2-27.7-2.5zm5.1 7.2 27.7 2.4-.3 3.8-27.7-2.4z"/>
        <path stroke-width="1.9" d="m-6.6 151.2 39.2 3.4-.4 4.7L-7 156Z"/>
        <path stroke-width="1.6" d="m3.1 157.6 26 2.3-.3 4-26-2.2z"/>
        <path stroke-width="1.7" d="m-4.1 161.8 29.6 2.6-.4 4.2-29.6-2.5z"/>
        <path stroke-width="1.9" d="m-12.8 166 40 3.5-.4 3.8-40-3.5z"/>
        <path stroke-width="1.7" d="m-1.5 171 29.6 2.6-.3 3.8-29.6-2.6zm-68.1-30.4 29.6 2.6-.4 3.8-29.5-2.6z"/>
        <path stroke-width="2.3" d="m6.8 90.7 11.7 1-1.8 20.3L5 111Z"/>
        <path stroke-width="2.3" d="m17.9 97.7 11.6 1-1.8 20.2-11.6-1z"/>
        <path stroke-width="2.3" d="m22 103.1 11.7 1-1.8 20.3-11.7-1z"/>
        <path stroke-width="2.3" d="m15.6 122 28.2 2.4-.4 4.4-28.2-2.5zm4.4 5.3 28.2 2.4-.4 4.4-28.2-2.5zm.6 5 28.2 2.4-.3 4.4-28.3-2.5zm-3.6 4.4 28.3 2.5-.4 4.3-28.2-2.4zm-2.8 19.1 28.2 2.5-.4 4.3-28.2-2.4zm-6.8 4.3 28.2 2.5-.3 4.4L7 164.5ZM1.7 165l28.3 2.4-.4 4.4-28.2-2.5zm2.7 5.3 28.2 2.5-.3 4.4L4 174.7Z"/>
      </g>
    </mask>
    <mask id="r">
      <path fill="#fff" d="M116.3 6.3h79.5v79.5h-79.5z"/>
      <g stroke-linejoin="round">
        <path stroke-width="2.3" d="m164.5 4.3 27.7 2.5-.7 8-27.7-2.4z"/>
        <path stroke-width="1.6" d="m166.3 13.1 27.7 2.5-.3 3.8L166 17Zm11.5 5.2 27.7 2.5-.4 4.4-27.7-2.4zm-3.9 4.7 27.6 2.4-.3 3.8-27.7-2.4zm-4.1 3.8 27.7 2.4-.4 4.5-27.7-2.4zm9.4 5.8 27.7 2.5-.5 5.3-27.7-2.5zm-7.6 5.2 27.7 2.5-.5 6.1L171 44Zm5.1 7.2 27.7 2.4-.3 3.8-27.7-2.4z"/>
        <path stroke-width="1.9" d="m158 55.6 39 3.4-.4 4.7-39.1-3.4z"/>
        <path stroke-width="1.6" d="m167.7 62 26 2.2-.3 4.2-26-2.3z"/>
        <path stroke-width="1.7" d="m160.5 66.2 29.5 2.5-.3 4.3-29.6-2.6Z"/>
        <path stroke-width="1.9" d="m151.8 70.4 40 3.5-.4 3.8-40-3.5z"/>
        <path stroke-width="1.7" d="m163.1 75.4 29.6 2.6-.3 3.8-29.6-2.6zM95 45l29.6 2.6-.4 3.8-29.6-2.6z"/>
        <path stroke-width="2.3" d="m171.4-4.9 11.6 1-1.7 20.3-11.7-1z"/>
        <path stroke-width="2.3" d="m182.4 2 11.7 1.1-1.8 20.2-11.6-1z"/>
        <path stroke-width="2.3" d="m186.6 7.5 11.6 1-1.7 20.3-11.7-1z"/>
        <path stroke-width="2.3" d="m180.1 26.3 28.3 2.5-.4 4.4-28.2-2.5zm4.4 5.4 28.3 2.4-.4 4.4-28.2-2.5z"/>
        <path stroke-width="2.1" d="m179.8 36.2 33.6 3-.4 4.3-33.5-3z"/>
        <path stroke-width="2.3" d="m181.7 41 28.2 2.6-.4 4.3-28.2-2.4zm-3 19.2 28.3 2.4-.4 4.4-28.3-2.5zm-6.7 4.3 28.2 2.5-.4 4.4-28.2-2.5zm-5.7 4.9 28.3 2.4-.4 4.4-28.3-2.5zm2.7 5.3 28.2 2.5-.4 4.4-28.2-2.5z"/>
      </g>
    </mask>
  </defs>
  <rect width="105.83" height="529.17" y="-529.17" fill="url(#i)" ry="15.45" transform="rotate(90)"/>
  <g fill="none" stroke-width="1.23">
    <path stroke="url(#j)" d="M26.46 0 517.5 75.57" opacity=".15" transform="matrix(.79768 0 0 .79748 .17 .48)"/>
    <path stroke="url(#k)" d="M43.72.08 101.9 131.6" opacity=".15" transform="matrix(.79768 0 0 .79748 .17 .48)"/>
    <path stroke="url(#l)" d="m511.85 97.01-76.45 34.15" opacity=".15" transform="matrix(.79768 0 0 .79748 .17 .48)"/>
    <path stroke="url(#m)" d="m291.15.07-63.18 131.66" opacity=".15" transform="matrix(.79768 0 0 .79748 .17 .48)"/>
    <path stroke="url(#n)" d="M626.04-.02 27.8 131.68" opacity=".15" transform="matrix(.79768 0 0 .79748 .17 .48)"/>
    <path stroke="url(#o)" d="M508.19.1 475.4 132.12" opacity=".15" transform="matrix(.79768 0 0 .79748 .17 .48)"/>
    <path stroke="url(#p)" d="m.13 85.76 78.74 45.7" opacity=".15" transform="matrix(.79768 0 0 .79748 .17 .48)"/>
  </g>
  <g stroke-width=".6" opacity=".7">
    <g stroke-width=".59" transform="matrix(1.69204 0 0 1.69398 467.57 -161.98)">
      <path fill="url(#q)" d="M194.8 46A38.8 38.8 0 0 1 156 84.8 38.8 38.8 0 0 1 117.3 46 38.8 38.8 0 0 1 156 7.3 38.8 38.8 0 0 1 194.8 46Z" mask="url(#r)" transform="rotate(-5 1177.2 1836.9)"/>
      <path fill="none" stroke="#000" d="M-34.5 136.7c11.9 3.8 23.8 7.6 36.5 9.3 12.8 1.7 26.5 1.4 40.2 1"/>
      <ellipse cx="17.3" cy="-121.3" fill="url(#s)" stroke="#000" stroke-linejoin="round" rx="13.3" ry="11.5" transform="rotate(175)"/>
      <ellipse cx="17.4" cy="-121.3" fill="url(#t)" stroke="#000" stroke-linejoin="round" rx="4.2" ry="3.6" transform="rotate(175.1) skewX(.1)"/>
      <path fill="none" stroke="#000" stroke-linecap="round" stroke-linejoin="round" d="M30.3 141.7a38.8 38.8 0 0 1-38.8 38.7 38.8 38.8 0 0 1-38.8-38.7 38.8 38.8 0 0 1 38.8-38.8 38.8 38.8 0 0 1 38.8 38.8z" mask="url(#u)" transform="rotate(-5)"/>
    </g>
    <path fill="none" stroke="#000" stroke-linecap="round" d="M51.2 29.7h13m-14.3 6.7h15.6M41.3 49h16.8m10.6-12.6h8.5m-34.7-31h8.1m-3.4 4.1h15.3M44.4.7V5m14.7 4.9v4.3m-7.4 5v4.3m3 6.7v6m-1.9 18.4v4.2m9-34.8v5.3m-7.3-14.7h12.6m-18.5 4.1H62M50.5 24h16.8M65 18.7h4.8m-9.9 22h19M64 49h13.9m-47.1 5.3h33m-22.6 4.9h18m-36.5 5.1h30M46 59.5V64m3.4 5v3m-3.5-3.4h13.4m-11.6 3.6h14M47 76h7.6m-18.4-7.4h5.6M1.2 48h10.6m-9.5 3.3h7m5.3-3.3h3m-17-4h8.6" transform="matrix(1.67026 0 0 1.67217 407.78 11.93)"/>
  </g>
  <text xml:space="preserve" x="17.3" y="34.17" fill="#fff" stroke-width=".2" font-family="Oxanium" font-size="28.3" font-weight="400" style="line-height:1.25;-inkscape-font-specification:&quot;Oxanium, @wght=400&quot;;font-variant-ligatures:normal;font-variant-caps:normal;font-variant-numeric:normal;font-variant-east-asian:normal;font-variation-settings:&quot;wght&quot;400"><tspan x="17.3" y="34.17" style="-inkscape-font-specification:&quot;Oxanium, @wght=400&quot;;font-variant-ligatures:normal;font-variant-caps:normal;font-variant-numeric:normal;font-variant-east-asian:normal;font-variation-settings:&quot;wght&quot;400">Holocron.io</tspan></text>
  <path fill="none" stroke="url(#v)" stroke-width=".79" d="M27.9 42.73h125.56"/>
</svg>
