<svg xmlns="http://www.w3.org/2000/svg" xmlns:xlink="http://www.w3.org/1999/xlink" width="300" height="300" viewBox="0 0 79.4 79.4">
  <defs>
    <linearGradient id="b">
      <stop offset="0" stop-color="#141414"/>
      <stop offset=".5" stop-color="#141414"/>
      <stop offset="1" stop-color="#5a5a5a"/>
    </linearGradient>
    <linearGradient id="a">
      <stop offset="0" stop-color="#141414"/>
      <stop offset=".5" stop-color="#141414"/>
      <stop offset="1" stop-color="#3c3c3c"/>
    </linearGradient>
    <linearGradient xlink:href="#a" id="e" x1="6.6" x2="69" y1="60.7" y2="16.8" gradientTransform="matrix(.34421 0 0 .29654 3.6 -133)" gradientUnits="userSpaceOnUse"/>
    <linearGradient xlink:href="#b" id="d" x1="6.6" x2="72.6" y1="60.7" y2="12.6" gradientTransform="translate(116.4 6.4)" gradientUnits="userSpaceOnUse"/>
    <linearGradient xlink:href="#a" id="f" x1="6.6" x2="69" y1="60.7" y2="16.8" gradientTransform="matrix(.10951 0 0 .09312 13 -125)" gradientUnits="userSpaceOnUse"/>
    <mask id="g">
      <path fill="#fff" d="M-48.7 101.5h80.3v80.3h-80.3Z"/>
      <path fill="#fff" d="M-48.7 101.5h80.4v80.3h-80.4z"/>
      <g stroke-linejoin="round">
        <path stroke-width="2.3" d="m-.1 100 27.7 2.4-.7 8L-.8 108Z"/>
        <path stroke-width="1.6" d="m1.8 108.8 27.6 2.4-.3 3.8-27.7-2.4zM13.2 114l27.7 2.4-.3 4.4-27.7-2.4ZM9.3 118.6 37 121l-.4 3.8L9 122.4ZM5.2 122.4l27.7 2.4-.4 4.6-27.7-2.5ZM14.6 128.3l27.7 2.4-.5 5.3-27.7-2.5ZM7 133.4l27.7 2.5-.5 6.2-27.7-2.5ZM12.1 140.6l27.7 2.4-.3 3.8-27.7-2.4Z"/>
        <path stroke-width="1.9" d="m-6.6 151.2 39.2 3.4-.4 4.7L-7 156Z"/>
        <path stroke-width="1.6" d="m3.1 157.6 26 2.3-.3 4-26-2.2Z"/>
        <path stroke-width="1.7" d="m-4.1 161.8 29.6 2.6-.4 4.2-29.6-2.5Z"/>
        <path stroke-width="1.9" d="m-12.8 166 40 3.5-.4 3.8-40-3.5Z"/>
        <path stroke-width="1.7" d="m-1.5 171 29.6 2.6-.3 3.8-29.6-2.6ZM-69.6 140.6l29.6 2.6-.4 3.8-29.5-2.6Z"/>
        <path stroke-width="2.3" d="m6.8 90.7 11.7 1-1.8 20.3L5 111Z"/>
        <path stroke-width="2.3" d="m17.9 97.7 11.6 1-1.8 20.2-11.6-1Z"/>
        <path stroke-width="2.3" d="m22 103.1 11.7 1-1.8 20.3-11.7-1Z"/>
        <path stroke-width="2.3" d="m15.6 122 28.2 2.4-.4 4.4-28.2-2.5ZM20 127.3l28.2 2.4-.4 4.4-28.2-2.5ZM20.6 132.3l28.2 2.4-.3 4.4-28.3-2.5ZM17 136.7l28.3 2.5-.4 4.3-28.2-2.4ZM14.2 155.8l28.2 2.5-.4 4.3-28.2-2.4ZM7.4 160.1l28.2 2.5-.3 4.4L7 164.5ZM1.7 165l28.3 2.4-.4 4.4-28.2-2.5ZM4.4 170.3l28.2 2.5-.3 4.4L4 174.7Z"/>
      </g>
    </mask>
    <mask id="c">
      <path fill="#fff" d="M116.3 6.3h79.5v79.5h-79.5z"/>
      <g stroke-linejoin="round">
        <path stroke-width="2.3" d="m164.5 4.3 27.7 2.5-.7 8-27.7-2.4Z"/>
        <path stroke-width="1.6" d="m166.3 13.1 27.7 2.5-.3 3.8L166 17zM177.8 18.3l27.7 2.5-.4 4.4-27.7-2.4ZM173.9 23l27.6 2.4-.3 3.8-27.7-2.4ZM169.8 26.8l27.7 2.4-.4 4.5-27.7-2.4ZM179.2 32.6l27.7 2.5-.5 5.3-27.7-2.5ZM171.6 37.8l27.7 2.5-.5 6.1L171 44ZM176.7 45l27.7 2.4-.3 3.8-27.7-2.4Z"/>
        <path stroke-width="1.9" d="M158 55.6 197 59l-.4 4.7-39.1-3.4Z"/>
        <path stroke-width="1.6" d="m167.7 62 26 2.2-.3 4.2-26-2.3Z"/>
        <path stroke-width="1.7" d="m160.5 66.2 29.5 2.5-.3 4.3-29.6-2.6Z"/>
        <path stroke-width="1.9" d="m151.8 70.4 40 3.5-.4 3.8-40-3.5Z"/>
        <path stroke-width="1.7" d="m163.1 75.4 29.6 2.6-.3 3.8-29.6-2.6ZM95 45l29.6 2.6-.4 3.8-29.6-2.6Z"/>
        <path stroke-width="2.3" d="m171.4-4.9 11.6 1-1.7 20.3-11.7-1Z"/>
        <path stroke-width="2.3" d="m182.4 2 11.7 1.1-1.8 20.2-11.6-1Z"/>
        <path stroke-width="2.3" d="m186.6 7.5 11.6 1-1.7 20.3-11.7-1Z"/>
        <path stroke-width="2.3" d="m180.1 26.3 28.3 2.5-.4 4.4-28.2-2.5ZM184.5 31.7l28.3 2.4-.4 4.4-28.2-2.5Z"/>
        <path stroke-width="2.1" d="m179.8 36.2 33.6 3-.4 4.3-33.5-3Z"/>
        <path stroke-width="2.3" d="m181.7 41 28.2 2.6-.4 4.3-28.2-2.4ZM178.7 60.2l28.3 2.4-.4 4.4-28.3-2.5ZM172 64.5l28.2 2.5-.4 4.4-28.2-2.5ZM166.3 69.4l28.3 2.4-.4 4.4-28.3-2.5ZM169 74.7l28.2 2.5-.4 4.4-28.2-2.5Z"/>
      </g>
    </mask>
  </defs>
  <g transform="translate(35.8 -104) scale(1.01304)">
    <path fill="url(#d)" d="M194.8 46A38.8 38.8 0 0 1 156 84.8 38.8 38.8 0 0 1 117.3 46 38.8 38.8 0 0 1 156 7.3 38.8 38.8 0 0 1 194.8 46Z" mask="url(#c)" transform="rotate(-5 1177.2 1836.9)"/>
    <path fill="none" stroke="#000" stroke-width=".8" d="M-34.5 136.7c11.9 3.8 23.8 7.6 36.5 9.3 12.8 1.7 26.5 1.4 40.2 1"/>
    <ellipse cx="17.3" cy="-121.3" fill="url(#e)" stroke="#000" stroke-linejoin="round" stroke-width=".8" rx="13.3" ry="11.5" transform="rotate(175)"/>
    <ellipse cx="17.4" cy="-121.3" fill="url(#f)" stroke="#000" stroke-linejoin="round" stroke-width=".8" rx="4.2" ry="3.6" transform="rotate(175.1) skewX(.1)"/>
    <path fill="none" stroke="#000" stroke-linecap="round" stroke-linejoin="round" stroke-width=".8" d="M30.3 141.7a38.8 38.8 0 0 1-38.8 38.7 38.8 38.8 0 0 1-38.8-38.7 38.8 38.8 0 0 1 38.8-38.8 38.8 38.8 0 0 1 38.8 38.8Z" mask="url(#g)" transform="rotate(-5 0 0)"/>
  </g>
  <g fill="none" stroke="#000" stroke-linecap="round" stroke-width=".8">
    <path stroke-width=".810432" d="M51.2 29.7h13M49.9 36.4h15.6M41.3 49h16.8M68.7 36.4h8.5M42.5 5.4h8.1M47.2 9.5h15.3M44.4.7V5M59.1 9.9v4.3M51.7 19.2v4.3M54.7 30.2v6M52.8 54.6v4.2M61.8 24v5.3M54.5 14.6h12.6M48.6 18.7H62M50.5 24h16.8M65 18.7h4.8M59.9 40.7h19M64 49h13.9M30.8 54.3h33M41.2 59.2h18M22.7 64.3h30M46 59.5V64M49.4 69v3M45.9 68.6h13.4M47.7 72.2h14M47 76h7.6M36.2 68.6h5.6M1.2 48h10.6M2.3 51.3h7M14.6 48h3M.6 44h8.6"/>
  </g>
</svg>
