<svg xmlns="http://www.w3.org/2000/svg" width="1920" height="1080" viewBox="0 0 508 285.75">
  <g fill="#f4364c" fill-opacity=".5">
    <circle cx="382.75" cy="40.4" r=".41"/>
    <circle cx="115.58" cy="62.91" r=".41"/>
    <circle cx="93.8" cy="155.74" r=".62"/>
    <circle cx="316.66" cy="86.94" r=".62"/>
    <circle cx="406" cy="106.74" r=".62"/>
    <circle cx="171.91" cy="267.74" r=".62"/>
    <g stroke="#000" stroke-linejoin="round">
      <circle cx="210.76" cy="106.2" r=".37" stroke-width=".08"/>
      <circle cx="427.21" cy="148.5" r=".37" stroke-width=".08"/>
      <circle cx="342.02" cy="139.9" r=".56" stroke-width=".12"/>
      <circle cx="46.75" cy="106.73" r=".56" stroke-width=".12"/>
      <circle cx="114.21" cy="9.02" r=".56" stroke-width=".12"/>
      <circle cx="331.38" cy="233.36" r=".56" stroke-width=".12"/>
    </g>
    <path d="M463.99 210.88c.13-.14.31-.5.31-.5h.03s.19.37.32.5.5.31.5.31v.04s-.37.18-.5.31-.32.5-.32.5h-.03s-.18-.37-.31-.5-.5-.31-.5-.31v-.04s.39-.2.5-.31zM240.84 202.8c.2-.21.47-.75.47-.75h.05s.27.55.47.75c.2.2.74.47.74.47v.05s-.54.27-.74.47c-.2.2-.47.74-.47.74h-.05s-.28-.54-.47-.74c-.2-.2-.75-.47-.75-.47v-.05s.58-.3.75-.47zM96.57 77.65c.14-.14.32-.5.32-.5h.03s.18.37.31.5.5.32.5.32V78s-.37.18-.5.31c-.13.14-.31.5-.31.5h-.03s-.19-.36-.32-.5a2.7 2.7 0 0 0-.5-.3v-.04s.4-.2.5-.32zM135.07 108.25c.2-.21.47-.74.47-.74h.05s.27.54.47.74c.2.2.74.47.74.47v.05s-.54.28-.74.47c-.2.2-.47.75-.47.75h-.05s-.28-.55-.47-.75c-.2-.2-.75-.47-.75-.47v-.05s.58-.3.75-.47zM402.21 259.56c.2-.2.47-.74.47-.74h.05s.28.55.47.74c.2.2.75.47.75.47v.05s-.55.28-.75.47c-.2.2-.47.75-.47.75h-.05s-.27-.55-.47-.75c-.2-.2-.74-.47-.74-.47v-.05s.57-.3.74-.47zM66.07 247.13c.2-.21.47-.75.47-.75h.05s.28.55.48.75c.2.2.74.47.74.47v.05s-.55.27-.74.47c-.2.2-.48.74-.48.74h-.05s-.27-.55-.47-.74c-.2-.2-.74-.47-.74-.47v-.05s.58-.3.74-.47z"/>
    <g stroke="#000" stroke-linejoin="round">
      <path stroke-width=".25" d="M178.15 114.29c.18-.19.45-.67.45-.67s.27.5.44.67c.18.18.67.45.67.45s-.49.27-.67.44c-.17.18-.44.67-.44.67s-.27-.5-.45-.67c-.18-.17-.67-.44-.67-.44s.52-.3.67-.45zM293.63 50.94c.19-.2.45-.67.45-.67s.27.49.44.67c.18.17.67.44.67.44s-.49.27-.67.45a4.2 4.2 0 0 0-.44.67s-.27-.5-.45-.67c-.18-.18-.67-.45-.67-.45s.52-.29.67-.44z"/>
      <path stroke-width=".17" d="M47.8 33.84c.13-.12.3-.44.3-.44s.19.32.3.44c.12.12.45.3.45.3s-.33.18-.45.3c-.11.11-.3.44-.3.44s-.17-.32-.3-.44c-.1-.12-.44-.3-.44-.3s.35-.2.45-.3zM48.55 34.59c.12-.13.3-.45.3-.45s.18.33.3.45c.12.11.44.3.44.3s-.32.17-.44.3c-.12.1-.3.44-.3.44s-.18-.33-.3-.45-.44-.3-.44-.3.34-.2.44-.3zM101.75 210.02c.12-.13.3-.45.3-.45s.18.33.3.45c.11.11.44.3.44.3s-.33.17-.44.3c-.12.1-.3.44-.3.44s-.18-.33-.3-.45-.45-.3-.45-.3.35-.19.45-.3zM425.09 26.77c.12-.13.3-.45.3-.45s.17.33.3.45c.1.12.44.3.44.3s-.33.18-.45.3c-.12.11-.3.44-.3.44s-.18-.33-.3-.45c-.11-.11-.44-.3-.44-.3s.35-.19.45-.3z"/>
    </g>
  </g>
  <g fill="#01796f" fill-opacity=".5">
    <g transform="translate(-48.96 -2.93)">
      <circle cx="382.75" cy="40.4" r=".41"/>
      <circle cx="115.58" cy="62.91" r=".41"/>
      <circle cx="93.8" cy="155.74" r=".62"/>
      <circle cx="316.66" cy="86.94" r=".62"/>
      <circle cx="406" cy="17.19" r=".62"/>
      <circle cx="171.91" cy="267.74" r=".62"/>
    </g>
    <g stroke="#000" stroke-linejoin="round" transform="translate(-48.96 -2.93)">
      <circle cx="246.02" cy="93.12" r=".37" stroke-width=".08"/>
      <circle cx="387.98" cy="111.65" r=".37" stroke-width=".08"/>
      <circle cx="342.02" cy="139.9" r=".56" stroke-width=".12"/>
      <circle cx="160.57" cy="24.87" r=".56" stroke-width=".12"/>
      <circle cx="331.38" cy="233.36" r=".56" stroke-width=".12"/>
    </g>
    <path d="M415.03 207.95c.13-.14.31-.5.31-.5h.04s.18.37.31.5.5.32.5.32v.03s-.37.18-.5.31-.31.5-.31.5h-.04s-.18-.37-.31-.5a2.7 2.7 0 0 0-.5-.31v-.03s.39-.2.5-.32zM191.88 199.87c.2-.2.47-.74.47-.74h.05s.27.55.47.74c.2.2.75.47.75.47v.05s-.55.28-.75.47c-.2.2-.47.75-.47.75h-.05s-.28-.55-.47-.75c-.2-.2-.75-.47-.75-.47v-.05s.58-.3.75-.47zM47.61 74.73c.14-.14.32-.5.32-.5h.03s.18.37.31.5c.14.13.5.31.5.31v.03s-.36.19-.5.32c-.13.13-.31.5-.31.5h-.03s-.19-.37-.32-.5a2.7 2.7 0 0 0-.5-.32v-.03s.4-.2.5-.31zM397.57 11.8c.2-.2.47-.74.47-.74h.05s.27.55.47.75c.2.2.74.47.74.47v.05s-.55.27-.74.47c-.2.2-.47.74-.47.74h-.05s-.28-.54-.47-.74c-.2-.2-.75-.47-.75-.47v-.05s.58-.3.75-.47zM353.25 256.64c.2-.21.47-.75.47-.75h.05s.28.55.47.75c.2.2.75.47.75.47v.05s-.55.27-.75.47c-.2.2-.47.74-.47.74h-.05s-.27-.55-.47-.74c-.2-.2-.74-.47-.74-.47v-.05s.57-.3.74-.47zM17.11 244.2c.2-.21.48-.74.48-.74h.04s.28.54.48.74c.2.2.74.47.74.47v.05s-.55.28-.74.47c-.2.2-.48.75-.48.75h-.04s-.28-.55-.48-.75c-.2-.2-.74-.47-.74-.47v-.05s.58-.3.74-.47z"/>
    <g stroke="#000" stroke-linejoin="round">
      <path stroke-width=".25" d="M93.93 124.44c.18-.19.44-.67.44-.67s.27.5.45.67c.17.18.67.45.67.45s-.5.27-.67.44c-.18.18-.45.67-.45.67s-.27-.5-.44-.67c-.18-.17-.67-.44-.67-.44s.52-.3.67-.45zM380.59 83.67c.18-.19.44-.67.44-.67s.27.5.45.67c.18.18.67.45.67.45s-.5.27-.67.45a4.2 4.2 0 0 0-.45.67s-.27-.5-.44-.67c-.18-.18-.67-.45-.67-.45s.52-.3.67-.45z"/>
      <path stroke-width=".17" d="M145.75 238.86c.13-.13.3-.45.3-.45s.18.33.3.45.45.3.45.3-.33.18-.45.3c-.12.11-.3.44-.3.44s-.18-.33-.3-.45c-.11-.11-.44-.3-.44-.3s.34-.19.44-.3zM52.8 207.09c.11-.13.29-.45.29-.45s.18.33.3.45c.11.12.44.3.44.3s-.33.18-.44.3c-.12.11-.3.44-.3.44s-.18-.33-.3-.44c-.12-.12-.45-.3-.45-.3s.35-.2.45-.3zM381.61 103.52c.13-.13.3-.45.3-.45s.18.33.3.45.44.3.44.3-.32.18-.44.3c-.12.11-.3.44-.3.44s-.18-.33-.3-.44c-.11-.12-.44-.3-.44-.3s.34-.2.44-.3z"/>
    </g>
  </g>
  <g fill="#b1a2ca" fill-opacity=".5">
    <g transform="translate(33.12 16.54)">
      <circle cx="382.75" cy="40.4" r=".41"/>
      <circle cx="115.58" cy="62.91" r=".41"/>
      <circle cx="129.07" cy="142.67" r=".62"/>
      <circle cx="316.66" cy="86.94" r=".62"/>
      <circle cx="406" cy="17.19" r=".62"/>
      <circle cx="407.28" cy="87.44" r=".62"/>
    </g>
    <g stroke="#000" stroke-linejoin="round" transform="translate(33.12 16.54)">
      <circle cx="210.76" cy="106.2" r=".37" stroke-width=".08"/>
      <circle cx="427.21" cy="148.5" r=".37" stroke-width=".08"/>
      <circle cx="255.24" cy="123.25" r=".56" stroke-width=".12"/>
      <circle cx="46.75" cy="106.73" r=".56" stroke-width=".12"/>
      <circle cx="160.57" cy="24.87" r=".56" stroke-width=".12"/>
      <circle cx="331.38" cy="233.36" r=".56" stroke-width=".12"/>
    </g>
    <path d="M497.11 227.42c.14-.14.31-.5.31-.5h.04s.18.37.31.5.5.32.5.32v.03s-.37.18-.5.31-.31.5-.31.5h-.04s-.18-.37-.3-.5a2.7 2.7 0 0 0-.5-.31v-.03s.38-.2.5-.32zM273.96 219.34c.2-.2.47-.74.47-.74h.05s.28.55.47.74c.2.2.75.47.75.47v.05s-.55.28-.75.47c-.2.2-.47.75-.47.75h-.05s-.27-.55-.47-.75c-.2-.2-.74-.47-.74-.47v-.05s.57-.3.74-.47zM164.96 81.12c.14-.14.32-.5.32-.5h.03s.18.37.31.5.5.31.5.31v.04s-.37.18-.5.31-.31.5-.31.5h-.03s-.19-.37-.32-.5-.5-.31-.5-.31v-.04s.4-.2.5-.31zM259.33 41.58c.2-.21.47-.74.47-.74h.05s.28.54.47.74c.2.2.75.47.75.47v.05s-.55.28-.75.47c-.2.2-.47.75-.47.75h-.05s-.27-.55-.47-.75c-.2-.2-.74-.47-.74-.47v-.05s.57-.3.74-.47zM404.03 138.6c.2-.2.47-.74.47-.74h.05s.27.55.47.74c.2.2.75.48.75.48v.05s-.55.27-.75.47c-.2.2-.47.74-.47.74h-.05s-.28-.55-.47-.74c-.2-.2-.75-.47-.75-.47v-.05s.58-.3.75-.48zM99.2 263.67c.2-.21.47-.74.47-.74h.05s.27.54.47.74c.2.2.74.47.74.47v.05s-.55.28-.74.47c-.2.2-.47.75-.47.75h-.05s-.28-.55-.47-.75c-.2-.2-.75-.47-.75-.47v-.05s.58-.3.75-.47z"/>
    <g stroke="#000" stroke-linejoin="round">
      <path stroke-width=".25" d="M211.27 130.83c.19-.19.45-.67.45-.67s.27.5.45.67c.17.18.67.45.67.45s-.5.27-.67.45c-.18.17-.45.67-.45.67s-.27-.5-.45-.67c-.17-.18-.67-.45-.67-.45s.52-.3.67-.45zM326.75 67.48c.19-.19.45-.67.45-.67s.27.5.45.67c.17.18.67.45.67.45s-.5.27-.67.44a4.2 4.2 0 0 0-.45.67s-.27-.5-.45-.67c-.17-.17-.66-.44-.66-.44s.51-.3.66-.45z"/>
      <path stroke-width=".17" d="M80.93 50.39c.12-.13.3-.45.3-.45s.18.33.3.45c.11.11.44.3.44.3s-.33.17-.44.3c-.12.1-.3.44-.3.44s-.18-.33-.3-.45-.44-.3-.44-.3.34-.2.44-.3zM421.27 80.85c.12-.13.3-.45.3-.45s.17.33.3.45c.11.12.44.3.44.3s-.33.18-.45.3c-.12.11-.3.44-.3.44s-.18-.33-.3-.45c-.11-.11-.44-.3-.44-.3s.35-.19.45-.3zM134.87 226.56c.13-.13.3-.45.3-.45s.18.33.3.45.45.3.45.3-.33.18-.45.3c-.12.11-.3.44-.3.44s-.18-.33-.3-.44c-.11-.12-.44-.3-.44-.3s.34-.2.44-.3zM463.7 33.44c.12-.13.3-.45.3-.45s.17.33.3.45c.1.11.44.3.44.3s-.33.17-.45.3c-.12.11-.3.44-.3.44s-.18-.33-.3-.45c-.11-.12-.44-.3-.44-.3s.35-.19.45-.3z"/>
    </g>
  </g>
  <g fill="#efbe7d" fill-opacity=".5">
    <g transform="translate(33.12 -16.53)">
      <circle cx="382.75" cy="40.4" r=".41"/>
      <circle cx="115.58" cy="62.91" r=".41"/>
      <circle cx="129.07" cy="142.67" r=".62"/>
      <circle cx="316.66" cy="86.94" r=".62"/>
      <circle cx="306.14" cy="32.64" r=".62"/>
      <circle cx="25.75" cy="60.54" r=".62"/>
    </g>
    <g stroke="#000" stroke-linejoin="round" transform="translate(33.12 -16.53)">
      <circle cx="210.76" cy="106.2" r=".37" stroke-width=".08"/>
      <circle cx="427.21" cy="148.5" r=".37" stroke-width=".08"/>
      <circle cx="381.25" cy="176.75" r=".56" stroke-width=".12"/>
      <circle cx="46.75" cy="106.73" r=".56" stroke-width=".12"/>
      <circle cx="160.57" cy="24.87" r=".56" stroke-width=".12"/>
      <circle cx="292.15" cy="196.51" r=".56" stroke-width=".12"/>
    </g>
    <path d="M497.11 194.35c.14-.14.31-.5.31-.5h.04s.18.37.31.5.5.31.5.31v.04s-.37.18-.5.31-.31.5-.31.5h-.04s-.18-.37-.3-.5a2.7 2.7 0 0 0-.5-.31v-.04s.38-.2.5-.31zM273.96 186.27c.2-.21.47-.75.47-.75h.05s.28.55.47.75c.2.2.75.47.75.47v.05s-.55.28-.75.47c-.2.2-.47.75-.47.75h-.05s-.27-.55-.47-.75c-.2-.2-.74-.47-.74-.47v-.05s.57-.3.74-.47zM140.8 10c.13-.13.3-.49.3-.49h.04s.18.37.31.5.5.31.5.31v.03s-.37.19-.5.32-.31.5-.31.5h-.04s-.18-.37-.3-.5a2.7 2.7 0 0 0-.5-.32v-.03s.38-.2.5-.31zM259.33 8.5c.2-.2.47-.74.47-.74h.05s.28.55.47.75c.2.2.75.47.75.47v.05s-.55.27-.75.47c-.2.2-.47.74-.47.74h-.05s-.27-.54-.47-.74c-.2-.2-.74-.47-.74-.47v-.05s.57-.3.74-.47zM435.33 243.03c.2-.2.47-.74.47-.74h.05s.28.55.48.74c.2.2.74.47.74.47v.05s-.55.28-.74.47c-.2.2-.48.75-.48.75h-.05s-.27-.55-.47-.75c-.2-.2-.74-.47-.74-.47v-.05s.58-.3.74-.47zM99.2 230.6c.2-.21.47-.75.47-.75h.05s.27.55.47.75c.2.2.74.47.74.47v.05s-.55.27-.74.47c-.2.2-.47.74-.47.74h-.05s-.28-.55-.47-.74c-.2-.2-.75-.47-.75-.47v-.05s.58-.3.75-.47z"/>
    <g stroke="#000" stroke-linejoin="round">
      <path stroke-width=".25" d="M211.27 97.76c.19-.19.45-.67.45-.67s.27.5.45.67c.17.18.67.45.67.45s-.5.27-.67.44c-.18.18-.45.67-.45.67s-.27-.49-.45-.67c-.17-.17-.67-.44-.67-.44s.52-.3.67-.45zM426.22 140.6c.18-.19.44-.67.44-.67s.27.5.45.67c.17.18.67.45.67.45s-.5.27-.67.45c-.18.17-.45.67-.45.67s-.27-.5-.44-.67a4.2 4.2 0 0 0-.67-.45s.52-.3.67-.45z"/>
      <path stroke-width=".17" d="M80.93 17.31c.12-.12.3-.44.3-.44s.18.32.3.44c.11.12.44.3.44.3s-.33.18-.44.3c-.12.12-.3.44-.3.44s-.18-.32-.3-.44-.44-.3-.44-.3.34-.2.44-.3zM227.84 225.25c.12-.12.3-.44.3-.44s.17.33.3.44c.1.12.44.3.44.3s-.33.18-.45.3-.3.45-.3.45-.18-.33-.3-.45c-.11-.12-.44-.3-.44-.3s.35-.2.45-.3zM134.87 193.49c.13-.13.3-.45.3-.45s.18.33.3.45c.12.11.45.3.45.3s-.33.17-.45.3c-.12.11-.3.44-.3.44s-.18-.33-.3-.45c-.11-.12-.44-.3-.44-.3s.34-.19.44-.3zM463.7.36c.12-.12.3-.44.3-.44s.17.33.3.44c.1.12.44.3.44.3s-.33.18-.45.3-.3.45-.3.45-.18-.33-.3-.45c-.11-.12-.44-.3-.44-.3s.35-.2.45-.3z"/>
    </g>
  </g>
</svg>
