<svg xmlns="http://www.w3.org/2000/svg" xmlns:xlink="http://www.w3.org/1999/xlink" xml:space="preserve" width="86.9744" height="100" viewBox="0 0 23.012 26.4583">
  <defs>
    <linearGradient id="a">
      <stop offset=".2835" stop-color="#c99700"/>
      <stop offset="1" stop-color="#e0e326"/>
    </linearGradient>
    <linearGradient xlink:href="#a" id="b" x1="-21.4911" x2="-21.4911" y1="134.2313" y2="48.6192" gradientUnits="userSpaceOnUse" spreadMethod="pad"/>
  </defs>
  <g stroke-width="3.2061">
    <path fill="#003264" d="M11.4936 0 .0122 6.562v13.336l11.5221 6.5603 11.4197-6.5441.0422-13.356z"/>
    <path fill="url(#b)" d="m-58.0218 112.9532-.0896-20.7874 12.916 6.7382.1383-21.225 30.7648-17.8208-6.8986-4.0622-31.01 17.902-.0895 19.2694-5.7313-2.9514-.0897-19.8198 36.9003-21.0385 18.245 10.4199-11.8827 7.6486L2.568 77.645l.2646 35.7825 7.0151-4.0452-.136-35.731-15.4237-9.2278L-.7218 60.86l16.3896 9.3243-.1354 42.8208-18.6748 10.8018-.1767-26.4797-14.2214 8.329-.2646 11.5951-3.3334 1.7461-31.0624-17.0824.1907 7.4682 31.271 17.6136 15.42-8.6876.0819 6.7014-15.8429 8.9753z" transform="translate(18.1251 -15.3324) scale(.3119)"/>
    <g fill="#003264" stroke-width="1">
      <path d="m12.3652 12.8934-5.7767-3.448 4.9498-2.8434L17.32 9.7769l-.0446 3.2066L12.4 15.6758s-.0289-1.6455-.0348-2.7824z"/>
      <path d="M5.7221 16.6147 5.69 10.8464l5.2312 2.8427-.0022 5.7846z"/>
    </g>
  </g>
</svg>
