<svg xmlns="http://www.w3.org/2000/svg" xmlns:xlink="http://www.w3.org/1999/xlink" xml:space="preserve" width="86.974" height="100" viewBox="0 0 23.012 26.458">
  <defs>
    <linearGradient id="b">
      <stop offset=".284" stop-color="#c99700"/>
      <stop offset="1" stop-color="#e0e326"/>
    </linearGradient>
    <linearGradient xlink:href="#b" id="c" x1="-56.314" x2="-35.827" y1="-39.897" y2="-39.897" gradientTransform="matrix(2.06643 0 0 1.4741 126.952 48.228)" gradientUnits="userSpaceOnUse"/>
    <linearGradient xlink:href="#b" id="d" x1="-56.314" x2="-35.827" y1="-39.897" y2="-39.897" gradientTransform="matrix(.51516 0 0 .36748 71.373 -11.812)" gradientUnits="userSpaceOnUse"/>
    <linearGradient xlink:href="#b" id="g" x1="-20.787" x2="-20.787" y1="134.039" y2="49.158" gradientUnits="userSpaceOnUse"/>
    <filter id="h" width="1.318" height="1.318" x="-.159" y="-.159" color-interpolation-filters="sRGB">
      <feGaussianBlur stdDeviation="2.806"/>
    </filter>
    <filter id="j" width="1.13" height="1.076" x="-.065" y="-.038" color-interpolation-filters="sRGB">
      <feGaussianBlur stdDeviation="1.009"/>
    </filter>
    <filter id="i" width="1.318" height="1.318" x="-.159" y="-.159" color-interpolation-filters="sRGB">
      <feGaussianBlur stdDeviation="2.806"/>
    </filter>
    <filter id="e" width="1.125" height="1.143" x="-.062" y="-.072" color-interpolation-filters="sRGB">
      <feGaussianBlur stdDeviation="1.247"/>
    </filter>
    <pattern xlink:href="#a" id="f" patternTransform="matrix(.7895 -.34498 .45947 1.05151 -60.677 126.706)"/>
    <pattern id="a" width="100.141" height="100.141" patternTransform="translate(-60.677 126.706)" patternUnits="userSpaceOnUse">
      <g stroke-opacity=".5">
        <path fill="#003264" stroke-linejoin="bevel" stroke-width=".794" d="M.072 100.072V.073h99.999v99.999z"/>
        <path fill="none" stroke="#000" stroke-width=".29858287" d="M.106 100.035 100.036.106M3.177 99.965 99.965 3.177M6.177 99.965 99.965 6.177M9.177 99.965 99.965 9.177M12.177 99.965l87.788-87.788M15.177 99.965l84.788-84.788M18.177 99.965l81.788-81.788M21.177 99.965l78.788-78.788M24.177 99.965l75.788-75.788M27.177 99.965l72.788-72.788M30.177 99.965l69.788-69.788M33.177 99.965l66.788-66.788M36.177 99.965l63.788-63.788M39.177 99.965l60.788-60.788M42.177 99.965l57.788-57.788M48.177 99.965l51.788-51.788M51.177 99.965l48.788-48.788M45.177 99.965l54.788-54.788M54.177 99.965l45.788-45.788M57.177 99.965l42.788-42.788M60.177 99.965l39.788-39.788M63.177 99.965l36.788-36.788M66.177 99.965l33.788-33.788M69.177 99.965l30.788-30.788M72.177 99.965l27.788-27.788M75.177 99.965l24.788-24.788M78.177 99.965l21.788-21.788M81.177 99.965l18.788-18.788M84.177 99.965l15.788-15.788M87.177 99.965l12.788-12.788M90.177 99.965l9.788-9.788M93.177 99.965l6.788-6.788M96.177 99.965l3.788-3.788M99.177 99.965l.788-.788M96.894 99.894.106 3.106M93.894 99.894.106 6.106M90.894 99.894.106 9.106M87.894 99.894.106 12.106M84.894 99.894.106 15.106M81.894 99.894.106 18.106M78.894 99.894.106 21.106M75.894 99.894.106 24.106M72.894 99.894.106 27.106M69.894 99.894.106 30.106M66.894 99.894.106 33.106M63.894 99.894.106 36.106M60.894 99.894.106 39.106M57.894 99.894.106 42.106M51.894 99.894.106 48.106M48.894 99.894.106 51.106M54.894 99.894.106 45.106M45.894 99.894.106 54.106M42.894 99.894.106 57.106M39.894 99.894.106 60.106M36.894 99.894.106 63.106M33.894 99.894.106 66.106M30.894 99.894.106 69.106M27.894 99.894.106 72.106M24.894 99.894.106 75.106M21.894 99.894.106 78.106M18.894 99.894.106 81.106M15.894 99.894.106 84.106M12.894 99.894.106 87.106M9.894 99.894.106 90.106M6.894 99.894.106 93.106M3.894 99.894.106 96.106M.894 99.894l-.788-.788"/>
      </g>
    </pattern>
  </defs>
  <g stroke-width="3.206">
    <path fill="url(#f)" d="m116.225 79.375-36.81 21.039v42.757l36.94 21.032 36.613-20.98.136-42.821z" transform="matrix(.3119 0 0 .3119 -24.757 -24.757)"/>
    <path fill-opacity=".3" d="M11.481 0 0 6.562v13.336l11.522 6.56 11.42-6.544.042-13.356z"/>
    <path fill="url(#g)" d="m-58.022 112.953-.09-20.787 12.917 6.738.138-21.14 30.765-17.906-6.899-4.062-31.01 17.902-.09 19.27-5.73-2.952-.09-19.82 36.9-21.038 18.245 10.42-11.883 7.648L2.568 77.645l.265 35.782 7.015-4.045-.136-35.73-15.424-9.229 5.16-3.478 16.22 9.24-.136 42.82-18.674 10.802-.177-26.48-14.985 7.905v12.274l-2.495 1.237-31.402-16.828.02 7.468 31.442 16.935 15.42-8.009.082 6.702-15.843 8.975z" transform="matrix(.3119 0 0 .3119 18.125 -15.332)"/>
    <path fill="none" stroke="#000" stroke-width=".2644912" d="m.16 19.821-.027-6.409 3.982 2.078.043-6.518 9.485-5.52-2.127-1.253-9.561 5.52-.028 5.94-1.767-.91-.027-6.11L11.51.152l5.625 3.213-3.664 2.358 5.37 3.212.082 11.033 2.163-1.247-.042-11.017-4.756-2.845 1.591-1.073 5.001 2.85-.042 13.201-5.758 3.33-.054-8.163-4.62 2.437v3.784l-.77.381-9.681-5.188.006 2.303 9.694 5.221 4.754-2.47.026 2.067-4.885 2.767z"/>
    <g fill="#003264" stroke="#000" stroke-width=".874">
      <path d="M-18.304 89.902-36.819 79.44l15.7-9.117 18.538 10.18-.143 10.28-15.58 8.632s.02-5.87 0-9.514z" transform="matrix(.30286 0 0 .3028 17.898 -14.54)"/>
      <path d="m-39.766 102.426-.103-18.494 16.772 9.115-.007 18.546z" transform="matrix(.30286 0 0 .3028 17.898 -14.54)"/>
    </g>
  </g>
  <g stroke-width="3.206">
    <path fill-opacity=".1" d="M147.578 14.132h42.341v42.341h-42.341z" filter="url(#h)" style="mix-blend-mode:normal" transform="matrix(.27174 .1531 -.27174 .1531 -24.757 -24.757)"/>
    <path fill="#fff" fill-opacity=".1" d="M147.578 14.132h42.341v42.341h-42.341z" filter="url(#i)" style="mix-blend-mode:normal" transform="matrix(.20537 .11843 -.20537 .11843 -15.9 -17.556)"/>
    <path fill-opacity=".3" d="m11.637 13.071.005 13.52L0 19.908V6.615z"/>
    <path fill-opacity=".3" d="m115.844 121.622-.014 42.582 37.324-21.085v-42.537z" filter="url(#j)" transform="matrix(.3119 0 0 .3119 -24.757 -24.757)"/>
  </g>
</svg>
